<?xml version="1.0" encoding="utf-8"?>
<svg x="0pt" y="0pt" width="48pt" height="48pt" viewBox="0 0 48 48" xmlns="http://www.w3.org/2000/svg" xmlns:xlink="http://www.w3.org/1999/xlink">
  <!--Generated by AMDN-->
  <g id="Layer_1">
    <g id="am1">
      <path style="fill:#0071bb;fill-opacity:1;fill-rule:evenodd;opacity:1;stroke:none;" d="M1.66666,9 C1.66666,4.58172,5.24838,1,9.66666,1 C9.66666,1,39.6667,1,39.6667,1 C44.085,1,47.6667,4.58172,47.6667,9 C47.6667,9,47.6667,39,47.6667,39 C47.6667,43.4183,44.085,47,39.6667,47 C39.6667,47,9.66666,47,9.66666,47 C5.24838,47,1.66666,43.4183,1.66666,39 C1.66666,39,1.66666,9,1.66666,9 z"/>
    </g>
    <clipPath id="am2">
      <path id="am3" d="M1.66666,9 C1.66666,4.58172,5.24838,1,9.66666,1 C9.66666,1,39.6667,1,39.6667,1 C44.085,1,47.6667,4.58172,47.6667,9 C47.6667,9,47.6667,39,47.6667,39 C47.6667,43.4183,44.085,47,39.6667,47 C39.6667,47,9.66666,47,9.66666,47 C5.24838,47,1.66666,43.4183,1.66666,39 C1.66666,39,1.66666,9,1.66666,9 z"/>
      <path d="M1.66666,9 C1.66666,4.58172,5.24838,1,9.66666,1 C9.66666,1,39.6667,1,39.6667,1 C44.085,1,47.6667,4.58172,47.6667,9 C47.6667,9,47.6667,39,47.6667,39 C47.6667,43.4183,44.085,47,39.6667,47 C39.6667,47,9.66666,47,9.66666,47 C5.24838,47,1.66666,43.4183,1.66666,39 C1.66666,39,1.66666,9,1.66666,9 z"/>
    </clipPath>
    <g id="Clipping_Group" style="clip-path:url(#am2);">
      <radialGradient cx="25.1505" cy="50.3626" r="43.8697" fx="25.1505" fy="50.3626" gradientUnits="userSpaceOnUse" gradientTransform="matrix(1,0,0,1,0,0)" id="am6">
        <stop offset="0.581624" style="stop-color:#ddebf5;stop-opacity:1;"/>
        <stop offset="0.713655" style="stop-color:#40afff;stop-opacity:0;"/>
      </radialGradient>
      <g id="Path">
        <path style="fill:url(#am6);fill-opacity:1;fill-rule:evenodd;opacity:1;stroke:none;" d="M25.1505,19.0272 C42.4566,19.0272,56.4859,33.0566,56.4859,50.3626 C56.4859,67.6687,42.4566,81.6981,25.1505,81.6981 C7.84438,81.6981,-6.18497,67.6687,-6.18497,50.3626 C-6.18497,33.0566,7.84438,19.0272,25.1505,19.0272 z"/>
      </g>
      <g id="Layer_1-1">
        <path id="Path_30" style="fill:#a3d8ff;fill-opacity:1;fill-rule:evenodd;opacity:1;stroke:#000000;stroke-linecap:round;stroke-linejoin:round;stroke-miterlimit:10;stroke-opacity:1;stroke-width:1.33;" d="M7.56549,31.636 C4.18908,34.8004,1.62609,38.916,0.34026,43.7148 C-2.25524,53.4013,1.04777,63.2787,8.04753,69.5333 C8.04753,69.5333,11.6591,56.0547,11.6591,56.0547 C11.6591,56.0547,4.88084,51.5793,4.88084,51.5793 C4.88084,51.5793,8.20478,39.1742,8.20478,39.1742 C8.20478,39.1742,7.05333,33.5474,7.05333,33.5474 C7.05333,33.5474,7.56549,31.636,7.56549,31.636 z"/>
        <path id="Path_29" style="fill:#a3d8ff;fill-opacity:1;fill-rule:evenodd;opacity:1;stroke:#000000;stroke-linecap:round;stroke-linejoin:round;stroke-miterlimit:10;stroke-opacity:1;stroke-width:1.33;" d="M24.59,24.6767 C26.9655,24.6259,29.3878,24.9065,31.7983,25.5524 C36.2256,26.7387,40.0713,29.0121,43.1253,32.0084 C43.1253,32.0084,35.0093,38.379,35.0093,38.379 C35.0093,38.379,35.496,46.4869,35.496,46.4869 C35.496,46.4869,42.2743,50.9622,42.2743,50.9622 C42.2743,50.9622,42.0961,61.5511,42.0961,61.5511 C42.0961,61.5511,36.7634,73.2732,36.7634,73.2732 C31.3154,76.0369,24.8678,76.8784,18.5026,75.1729 C14.8239,74.1871,11.5467,72.4509,8.79165,70.1731 C8.79165,70.1731,27.21,57.5624,27.21,57.5624 C27.21,57.5624,28.5396,52.6003,28.5396,52.6003 C28.5396,52.6003,21.7613,48.125,21.7613,48.125 C21.7613,48.125,15.6478,41.1686,15.6478,41.1686 C15.6478,41.1686,10.6858,39.839,10.6858,39.839 C10.6858,39.839,12.6802,32.3959,12.6802,32.3959 C12.6802,32.3959,15.826,30.5797,15.826,30.5797 C15.826,30.5797,16.9774,36.2065,16.9774,36.2065 C16.9774,36.2065,19.4584,36.8713,19.4584,36.8713 C19.4584,36.8713,21.4528,29.4282,21.4528,29.4282 C21.4528,29.4282,24.59,24.6767,24.59,24.6767 z"/>
        <path id="Path_32" style="fill:#264d42;fill-opacity:1;fill-rule:evenodd;opacity:1;stroke:#000000;stroke-linecap:round;stroke-linejoin:round;stroke-miterlimit:10;stroke-opacity:1;stroke-width:1.33;" d="M24.59,24.6767 C24.59,24.6767,21.4528,29.4282,21.4528,29.4282 C21.4528,29.4282,19.4584,36.8713,19.4584,36.8713 C19.4584,36.8713,16.9774,36.2065,16.9774,36.2065 C16.9774,36.2065,15.826,30.5797,15.826,30.5797 C15.826,30.5797,12.6802,32.3959,12.6802,32.3959 C12.6802,32.3959,10.6858,39.839,10.6858,39.839 C10.6858,39.839,15.6478,41.1686,15.6478,41.1686 C15.6478,41.1686,21.7613,48.125,21.7613,48.125 C21.7613,48.125,28.5396,52.6003,28.5396,52.6003 C28.5396,52.6003,27.21,57.5624,27.21,57.5624 C27.21,57.5624,8.79165,70.1731,8.79165,70.1731 C8.53925,69.9644,8.29115,69.751,8.04753,69.5333 C8.04753,69.5333,11.6591,56.0547,11.6591,56.0547 C11.6591,56.0547,4.88084,51.5793,4.88084,51.5793 C4.88084,51.5793,8.20478,39.1742,8.20478,39.1742 C8.20478,39.1742,7.05333,33.5474,7.05333,33.5474 C7.05333,33.5474,7.56549,31.636,7.56549,31.636 C12.134,27.3542,18.1917,24.8133,24.59,24.6767 z"/>
        <path id="Path_31" style="fill:#264d42;fill-opacity:1;fill-rule:evenodd;opacity:1;stroke:#000000;stroke-linecap:round;stroke-linejoin:round;stroke-miterlimit:10;stroke-opacity:1;stroke-width:1.33;" d="M43.1253,32.0084 C43.1253,32.0084,35.0093,38.379,35.0093,38.379 C35.0093,38.379,35.496,46.4869,35.496,46.4869 C35.496,46.4869,42.2743,50.9622,42.2743,50.9622 C42.2743,50.9622,42.0962,61.5511,42.0962,61.5511 C42.0962,61.5511,36.7634,73.2732,36.7634,73.2732 C43.0432,70.0874,47.9947,64.3476,49.9607,57.0105 C52.4459,47.7355,49.5232,38.2855,43.1253,32.0084 z"/>
      </g>
    </g>
    <clipPath id="am7">
      <path id="am8" d="M1.66666,9 C1.66666,4.58172,5.24838,1,9.66666,1 C9.66666,1,39.6667,1,39.6667,1 C44.085,1,47.6667,4.58172,47.6667,9 C47.6667,9,47.6667,39,47.6667,39 C47.6667,43.4183,44.085,47,39.6667,47 C39.6667,47,9.66666,47,9.66666,47 C5.24838,47,1.66666,43.4183,1.66666,39 C1.66666,39,1.66666,9,1.66666,9 z"/>
      <path d="M1.66666,9 C1.66666,4.58172,5.24838,1,9.66666,1 C9.66666,1,39.6667,1,39.6667,1 C44.085,1,47.6667,4.58172,47.6667,9 C47.6667,9,47.6667,39,47.6667,39 C47.6667,43.4183,44.085,47,39.6667,47 C39.6667,47,9.66666,47,9.66666,47 C5.24838,47,1.66666,43.4183,1.66666,39 C1.66666,39,1.66666,9,1.66666,9 z"/>
    </clipPath>
    <g id="am9" style="clip-path:url(#am7);"/>
    <g id="Group">
      <path id="Path-1" style="fill:#9e9e9e;fill-opacity:1;fill-rule:nonzero;opacity:1;stroke:#000000;stroke-linecap:round;stroke-linejoin:round;stroke-miterlimit:10;stroke-opacity:1;stroke-width:1.33;" d="M19.3333,21.3333 C19.3333,21.3333,15.3333,22.6667,15.3333,25.3333 C15.3333,28,19.3333,28,19.3333,28"/>
      <path id="Path_Copy" style="fill:#9e9e9e;fill-opacity:1;fill-rule:nonzero;opacity:1;stroke:#000000;stroke-linecap:round;stroke-linejoin:round;stroke-miterlimit:10;stroke-opacity:1;stroke-width:1.33;" d="M30.0001,21.3333 C30.0001,21.3333,34.0001,22.6667,34.0001,25.3333 C34.0001,28,30.0001,28,30.0001,28"/>
      <path id="Path-2" style="fill:#ffffff;fill-opacity:1;fill-rule:evenodd;opacity:1;stroke:#000000;stroke-linecap:round;stroke-linejoin:round;stroke-miterlimit:10;stroke-opacity:1;stroke-width:1.33;" d="M14.6667,8.78787 C14.6667,7.24817,15.8606,6,17.3333,6 C17.3333,6,32,6,32,6 C33.4727,6,34.6667,7.24817,34.6667,8.78787 C34.6667,8.78787,34.6667,18.5455,34.6667,18.5455 C34.6667,20.0851,33.4727,21.3333,32,21.3333 C32,21.3333,17.3333,21.3333,17.3333,21.3333 C15.8606,21.3333,14.6667,20.0851,14.6667,18.5455 C14.6667,18.5455,14.6667,8.78787,14.6667,8.78787 z"/>
      <path id="Path-3" style="fill:#ffffff;fill-opacity:1;fill-rule:nonzero;opacity:1;stroke:#000000;stroke-linecap:round;stroke-linejoin:round;stroke-miterlimit:10;stroke-opacity:1;stroke-width:1.33;" d="M24.6667,9.33333 C24.6667,9.33333,24.6667,17.3333,24.6667,17.3333"/>
      <path id="Path-4" style="fill:#ffffff;fill-opacity:1;fill-rule:nonzero;opacity:1;stroke:#000000;stroke-linecap:round;stroke-linejoin:round;stroke-miterlimit:10;stroke-opacity:1;stroke-width:1.33;" d="M27.3333,12 C27.3333,12,27.3333,13.3333,27.3333,13.3333"/>
      <path id="Path_Copy-1" style="fill:#ffffff;fill-opacity:1;fill-rule:nonzero;opacity:1;stroke:#000000;stroke-linecap:round;stroke-linejoin:round;stroke-miterlimit:10;stroke-opacity:1;stroke-width:1.33;" d="M22,12 C22,12,22,13.3333,22,13.3333"/>
      <path id="Path-5" style="fill:none;opacity:1;stroke:#000000;stroke-linecap:round;stroke-linejoin:round;stroke-miterlimit:10;stroke-opacity:1;stroke-width:1.33;" d="M30,30.6667 C30,30.6667,28.6667,29.3333,28.6667,29.3333 C28.6667,29.3333,27.3333,30.6667,27.3333,30.6667"/>
      <path id="Path_Copy-2" style="fill:none;opacity:1;stroke:#000000;stroke-linecap:round;stroke-linejoin:round;stroke-miterlimit:10;stroke-opacity:1;stroke-width:1.33;" d="M22,30.6667 C22,30.6667,20.6667,29.3333,20.6667,29.3333 C20.6667,29.3333,19.3333,30.6667,19.3333,30.6667"/>
      <path id="Path-6" style="fill:#e4e4e4;fill-opacity:1;fill-rule:evenodd;opacity:1;stroke:#000000;stroke-linecap:round;stroke-linejoin:round;stroke-miterlimit:10;stroke-opacity:1;stroke-width:1.33;" d="M19.3333,21.3333 C19.3333,21.3333,30,21.3333,30,21.3333 C30,21.3333,30,28,30,28 C30,28,19.3333,28,19.3333,28 C19.3333,28,19.3333,21.3333,19.3333,21.3333 z"/>
      <path id="Group-1" style="fill:none;opacity:1;stroke:#000000;stroke-linecap:butt;stroke-linejoin:miter;stroke-miterlimit:10;stroke-opacity:1;stroke-width:0.67;" d="M19.3333,21.3333 C19.3333,21.3333,15.3333,22.6667,15.3333,25.3333 C15.3333,28,19.3333,28,19.3333,28 M30.0001,21.3333 C30.0001,21.3333,34.0001,22.6667,34.0001,25.3333 C34.0001,28,30.0001,28,30.0001,28 M14.6667,8.78787 C14.6667,7.24817,15.8606,6,17.3333,6 C17.3333,6,32,6,32,6 C33.4727,6,34.6667,7.24817,34.6667,8.78787 C34.6667,8.78787,34.6667,18.5455,34.6667,18.5455 C34.6667,20.0851,33.4727,21.3333,32,21.3333 C32,21.3333,17.3333,21.3333,17.3333,21.3333 C15.8606,21.3333,14.6667,20.0851,14.6667,18.5455 C14.6667,18.5455,14.6667,8.78787,14.6667,8.78787 z M24.6667,9.33333 C24.6667,9.33333,24.6667,17.3333,24.6667,17.3333 M27.3333,12 C27.3333,12,27.3333,13.3333,27.3333,13.3333 M22,12 C22,12,22,13.3333,22,13.3333 M30,30.6667 C30,30.6667,28.6667,29.3333,28.6667,29.3333 C28.6667,29.3333,27.3333,30.6667,27.3333,30.6667 M22,30.6667 C22,30.6667,20.6667,29.3333,20.6667,29.3333 C20.6667,29.3333,19.3333,30.6667,19.3333,30.6667 M19.3333,21.3333 C19.3333,21.3333,30,21.3333,30,21.3333 C30,21.3333,30,28,30,28 C30,28,19.3333,28,19.3333,28 C19.3333,28,19.3333,21.3333,19.3333,21.3333 z"/>
    </g>
  </g>
</svg>
